<svg version="1.1" viewBox="0 0 335 171" xmlns="http://www.w3.org/2000/svg" xmlns:cc="http://creativecommons.org/ns#" xmlns:dc="http://purl.org/dc/elements/1.1/" xmlns:rdf="http://www.w3.org/1999/02/22-rdf-syntax-ns#">
  <metadata>
    <rdf:RDF>
      <cc:Work rdf:about="">
        <dc:format>image/svg+xml</dc:format>
        <dc:type rdf:resource="http://purl.org/dc/dcmitype/StillImage"/>
        <dc:title/>
      </cc:Work>
    </rdf:RDF>
  </metadata>
  <path d="m28.671 151.83c-3.047-3.047-3.5676-8.5892-1.1333-12.065 2.401-3.4279 7.6109-4.6961 11.911-2.8993 1.9722 0.82403 3.5858 2.1962 3.5858 3.0492 0 1.6777-0.46192 1.8168-6.5 1.9577-3.5289 0.0823-4.0354 0.39789-4.3006 2.6789-0.40961 3.5237 2.2517 5.7382 4.9048 4.0814 1.4046-0.87721 2.4888-0.91999 3.9188-0.15465 2.5601 1.3701 2.4969 2.5101-0.24554 4.431-3.5452 2.4832-9.0696 1.9919-12.141-1.0797zm26.44 0.0475c-8.0566-6.7792 0.25077-19.227 10.088-15.115 5.4677 2.2855 7.5061 6.4828 5.6852 11.706-2.1673 6.217-10.337 7.9827-15.773 3.4089zm9.9233-4.4111c1.6368-3.0585-0.42816-6.2015-3.8173-5.8099-1.9232 0.22218-2.7753 0.96255-3.0095 2.615-0.66129 4.6648 4.6978 7.1729 6.8268 3.195zm16-2v-9h6.845c5.3613 0 7.2037 0.39638 8.5 1.8287 2.1231 2.346 2.1151 6.0053-0.0182 8.3626-1.5711 1.736-1.5388 2.0307 0.52994 4.8287l2.2031 2.9799h-3.5069c-2.6372 0-3.9131-0.61999-5.145-2.5-0.90094-1.375-2.0363-2.5-2.523-2.5-0.48675 0-0.88499 1.125-0.88499 2.5 0 2.1111-0.46667 2.5-3 2.5h-3zm11-2.5c0-0.93333-0.94445-1.5-2.5-1.5-1.5556 0-2.5 0.56667-2.5 1.5s0.94444 1.5 2.5 1.5c1.5556 0 2.5-0.56667 2.5-1.5zm16 2.5v-9h8.0696c7.7964 0 8.0587 0.0761 7.75 2.25-0.27269 1.9201-1.0161 2.2947-5.0696 2.5548-6.0376 0.38741-6.2435 2.1952-0.25 2.1952 3.8333 0 4.5 0.2963 4.5 2s-0.66667 2-4.5 2c-2.475 0-4.5 0.45-4.5 1s2.25 1 5 1c4.6667 0 5 0.16667 5 2.5 0 2.4583-0.13333 2.5-8 2.5h-8zm41.25 7.7795c-2.6321-1.2694-2.7982-2.0797-0.77089-3.7622 1.1264-0.93479 2.2441-0.96087 4.6869-0.10932 2.0442 0.71262 3.5552 0.77082 4.1655 0.16046s-0.0922-1.2024-1.9369-1.6321c-5.0833-1.1842-7.3946-3.2192-7.3946-6.5105 0-4.1888 5.1757-6.4942 11.037-4.9161 4.3592 1.1738 4.4231 1.2628 2.9214 4.0686-0.82231 1.5365-1.4409 1.7335-2.9343 0.93426-1.0408-0.55699-2.5968-1.0127-3.458-1.0127-2.5958 0-1.7602 1.7354 1.1843 2.4593 6.9196 1.7013 9.1096 5.6811 5.25 9.5407-2.2379 2.2379-8.8836 2.6442-12.75 0.77951zm29.75-1.7348c0-1.6254-1.5396-5.5629-3.4214-8.75l-3.4214-5.7947 3.1447-0.33001c1.7296-0.18151 3.2854 0.0922 3.4574 0.60818 0.17201 0.51602 0.93195 1.785 1.6888 2.82 1.3126 1.7951 1.4335 1.7556 2.6244-0.85819 1.0058-2.2076 1.9116-2.74 4.6613-2.74h3.4129l-3.0734 5.3717c-1.8795 3.285-3.0734 6.7812-3.0734 9 0 3.3647-0.21789 3.6283-3 3.6283-2.6566 0-3-0.3383-3-2.9553zm21.25 1.7348c-2.6321-1.2694-2.7982-2.0797-0.77089-3.7622 1.1264-0.93479 2.2441-0.96087 4.6869-0.10932 2.0442 0.71262 3.5552 0.77082 4.1655 0.16046s-0.0922-1.2024-1.9369-1.6321c-5.0833-1.1842-7.3946-3.2192-7.3946-6.5105 0-4.1888 5.1757-6.4942 11.037-4.9161 4.3592 1.1738 4.4231 1.2628 2.9214 4.0686-0.82231 1.5365-1.4409 1.7335-2.9343 0.93426-1.0408-0.55699-2.5968-1.0127-3.458-1.0127-2.5958 0-1.7602 1.7354 1.1843 2.4593 6.9196 1.7013 9.1096 5.6811 5.25 9.5407-2.2379 2.2379-8.8836 2.6442-12.75 0.77951zm27.75-5.2131c0-6.2751-0.0677-6.4414-2.75-6.75-1.969-0.22656-2.8408-0.95541-3.0696-2.5664-0.31006-2.1832-0.065-2.25 8.25-2.25 8.4742 0 8.5696 0.0278 8.5696 2.5 0 2-0.5 2.5-2.5 2.5-2.4103 0-2.5 0.23333-2.5 6.5v6.5h-6zm21-2.5664v-9h8.0696c7.7964 0 8.0587 0.0761 7.75 2.25-0.27269 1.9201-1.0161 2.2947-5.0696 2.5548-6.0376 0.38741-6.2435 2.1952-0.25 2.1952 3.8333 0 4.5 0.2963 4.5 2s-0.66667 2-4.5 2c-2.475 0-4.5 0.45-4.5 1s2.25 1 5 1c4.6667 0 5 0.16667 5 2.5 0 2.4583-0.13333 2.5-8 2.5h-8zm25 0v-9h3.2844c2.6161 0 3.659 0.6341 5.1252 3.1162l1.8408 3.1162 1.973-3.1162c1.5771-2.4909 2.6556-3.1162 5.3748-3.1162h3.4018v18h-3c-2.904 0-3.0019-0.15196-3.0588-4.75-0.0501-4.0469-0.23513-4.4781-1.25-2.9134-3.3369 5.145-3.2107 5.1098-5.4995 1.5345l-2.158-3.3711-0.0168 4.75c-0.0164 4.6074-0.10697 4.75-3.0169 4.75h-3zm-248-31v-13h-26.07l0.28498-10.25 0.28499-10.25 12.725-0.27969 12.725-0.27969 0.27463-16.22 0.27463-16.22 35.821-0.26271c35.732-0.26205 35.82-0.25759 35.17 1.7903-0.35838 1.1292-2.3864 6.1974-4.5068 11.263l-3.8552 9.2097-18.065 0.27256-18.065 0.27256v9.9549h15.5c8.525 0 15.5 0.38196 15.5 0.84881 0 0.46685-1.7705 5.0793-3.9344 10.25l-3.9344 9.4012-11.566 0.28174-11.566 0.28173v25.937h-27zm73.326-42.4c12.746-30.577 23.399-55.582 23.674-55.568 0.275 0.01394 10.918 25.035 23.652 55.602l23.152 55.577-3.1517-0.649c-5.8856-1.2119-22.14-3.5499-24.721-3.5558-1.9362-4e-3 -2.9221-0.80702-4-3.2559l-1.4305-3.25-13.786-0.27846-13.786-0.27845-1.3592 3.2326c-1.349 3.2084-1.4443 3.245-12.714 4.8955-6.245 0.91459-13.008 1.9914-15.029 2.393l-3.6744 0.73008zm30.674 25.867c0-1.0304-6.2603-16.978-6.9745-17.767-0.69517-0.76789-7.0255 14.639-7.0255 17.099 0 0.81863 2.2233 1.1997 7 1.1997 3.85 0 7-0.23952 7-0.53226zm44 1.0323v-28.5h-17.655l-4.4227-10.679c-2.4325-5.8734-4.5727-11.048-4.756-11.5-0.18334-0.45156 32.779-0.82101 73.25-0.82101h73.583v23h-42v7h39v20h-39.115l0.3075 4.25 0.3075 4.25 21.25 0.26989 21.25 0.26989v20.96h-69v-57h-25v57h-27z"/>
  <text transform="scale(1.0306 .97032)" x="292.34613" y="56.334522" fill="#000000" font-family="sans-serif" font-size="10.173px" letter-spacing="0px" stroke-width=".25432" word-spacing="0px" style="line-height:1.25" xml:space="preserve"><tspan x="292.34613" y="56.334522" stroke-width=".25432">TM</tspan></text>
</svg>